<svg width="26" height="55" viewBox="0 0 26 55" fill="none" xmlns="http://www.w3.org/2000/svg">
      <path d="M12.7775 54.7855C12.5314 54.7855 12.2953 54.6877 12.1212 54.5137C11.9472 54.3396 11.8494 54.1035 11.8494 53.8574V41.2964C11.8494 41.0503 11.9472 40.8142 12.1212 40.6401C12.2953 40.4661 12.5314 40.3683 12.7775 40.3683C13.0237 40.3683 13.2598 40.4661 13.4338 40.6401C13.6079 40.8142 13.7057 41.0503 13.7057 41.2964V53.8326C13.709 53.9566 13.6874 54.0799 13.6422 54.1954C13.5971 54.3109 13.5292 54.4162 13.4427 54.505C13.3562 54.5938 13.2528 54.6644 13.1385 54.7126C13.0243 54.7608 12.9015 54.7856 12.7775 54.7855Z" fill="white"/>
      <path d="M12.7774 54.7856C12.5492 54.7859 12.3289 54.7022 12.1586 54.5505L6.5897 49.6746C6.49829 49.5933 6.42377 49.4949 6.37041 49.3848C6.31705 49.2748 6.28589 49.1553 6.27871 49.0332C6.27152 48.9111 6.28846 48.7888 6.32855 48.6732C6.36864 48.5577 6.4311 48.4511 6.51236 48.3597C6.59361 48.2683 6.69208 48.1938 6.80214 48.1404C6.91219 48.0871 7.03168 48.0559 7.15377 48.0487C7.27587 48.0415 7.39819 48.0585 7.51374 48.0986C7.62929 48.1387 7.73582 48.2011 7.82723 48.2824L13.3961 53.1583C13.4884 53.2376 13.564 53.3344 13.6186 53.4432C13.6732 53.5519 13.7058 53.6703 13.7144 53.7917C13.723 53.9131 13.7076 54.035 13.6689 54.1503C13.6302 54.2657 13.569 54.3722 13.4889 54.4638C13.4003 54.5653 13.2909 54.6466 13.1681 54.7021C13.0454 54.7576 12.9121 54.7861 12.7774 54.7856Z" fill="white"/>
      <path d="M12.7775 54.7855C12.5879 54.7873 12.4023 54.7309 12.2457 54.6239C12.089 54.5169 11.969 54.3646 11.9016 54.1873C11.8342 54.01 11.8227 53.8164 11.8687 53.6324C11.9146 53.4484 12.0159 53.2829 12.1588 53.1582L17.7277 48.2823C17.8191 48.2011 17.9256 48.1386 18.0412 48.0985C18.1567 48.0584 18.279 48.0415 18.4011 48.0487C18.5232 48.0559 18.6427 48.087 18.7528 48.1404C18.8628 48.1937 18.9613 48.2682 19.0425 48.3597C19.1238 48.4511 19.1863 48.5576 19.2263 48.6732C19.2664 48.7887 19.2834 48.911 19.2762 49.0331C19.269 49.1552 19.2378 49.2747 19.1845 49.3848C19.1311 49.4948 19.0566 49.5933 18.9652 49.6745L13.3963 54.5504C13.2269 54.7037 13.006 54.7877 12.7775 54.7855ZM16.1993 36.6743H9.34957C6.87092 36.671 4.49473 35.6849 2.74206 33.9322C0.989384 32.1796 0.00329273 29.8034 1.84214e-05 27.3247V9.3805C-0.00242141 8.15055 0.237521 6.93218 0.706136 5.795C1.17475 4.65782 1.86285 3.62413 2.73112 2.75299C3.59939 1.88185 4.6308 1.19034 5.76643 0.717967C6.90205 0.245598 8.11962 0.00163161 9.34957 8.18818e-06H16.1993C17.4284 -0.00161792 18.6459 0.23897 19.782 0.708025C20.9181 1.17708 21.9506 1.86541 22.8206 2.73368C23.6906 3.60194 24.381 4.63313 24.8523 5.76831C25.3236 6.9035 25.5666 8.12043 25.5674 9.34956V27.3247C25.5666 28.5538 25.3236 29.7708 24.8523 30.906C24.381 32.0411 23.6906 33.0723 22.8206 33.9406C21.9506 34.8089 20.9181 35.4972 19.782 35.9662C18.6459 36.4353 17.4284 36.6759 16.1993 36.6743ZM9.34957 1.85631C7.36274 1.85794 5.45775 2.64794 4.05285 4.05284C2.64795 5.45774 1.85795 7.36273 1.85632 9.34956V27.3247C1.85959 29.311 2.65011 31.2151 4.05465 32.6196C5.4592 34.0242 7.36324 34.8147 9.34957 34.818H16.1993C17.1847 34.8196 18.1607 34.627 19.0716 34.2513C19.9825 33.8755 20.8104 33.3239 21.508 32.628C22.2057 31.9321 22.7593 31.1056 23.1373 30.1956C23.5153 29.2856 23.7103 28.3101 23.7111 27.3247V9.3805C23.7144 8.39254 23.5224 7.41366 23.1462 6.50012C22.77 5.58658 22.217 4.75637 21.519 4.0572C20.821 3.35802 19.9917 2.80366 19.0788 2.42596C18.1658 2.04826 17.1873 1.85467 16.1993 1.85631H9.34957Z" fill="white"/>
      <path d="M12.7775 15.4134C12.5314 15.4134 12.2953 15.3156 12.1212 15.1416C11.9472 14.9675 11.8494 14.7314 11.8494 14.4853V9.82598C11.8494 9.57982 11.9472 9.34374 12.1212 9.16968C12.2953 8.99561 12.5314 8.89783 12.7775 8.89783C13.0237 8.89783 13.2598 8.99561 13.4338 9.16968C13.6079 9.34374 13.7057 9.57982 13.7057 9.82598V14.4853C13.7057 14.7314 13.6079 14.9675 13.4338 15.1416C13.2598 15.3156 13.0237 15.4134 12.7775 15.4134Z" fill="white"/>
      </svg>