<svg width="145" height="145" viewBox="0 0 145 145" fill="none" xmlns="http://www.w3.org/2000/svg">
        <path d="M66.8524 137.06C66.8369 137.293 66.8598 137.502 66.9211 137.685C66.9776 137.872 67.0901 138.045 67.2587 138.203C67.4228 138.361 67.6559 138.517 67.9581 138.67C68.2557 138.823 68.6354 138.984 69.0973 139.152C69.5815 139.331 70.0166 139.523 70.4026 139.728C70.7884 139.937 71.1152 140.168 71.3833 140.42C71.6513 140.672 71.8508 140.954 71.9816 141.266C72.1125 141.578 72.165 141.928 72.1392 142.317C72.1134 142.706 72.0095 143.059 71.8276 143.378C71.6457 143.697 71.398 143.967 71.0847 144.19C70.7664 144.417 70.3947 144.585 69.9694 144.695C69.5441 144.804 69.0754 144.842 68.5632 144.808C67.8132 144.758 67.1871 144.572 66.6849 144.249C66.1778 143.931 65.8024 143.531 65.5587 143.051C65.3147 142.576 65.21 142.077 65.2447 141.556L66.5617 141.643C66.5368 142.018 66.5948 142.355 66.7357 142.654C66.8764 142.957 67.1036 143.202 67.4173 143.388C67.7308 143.579 68.1367 143.691 68.6352 143.724C69.1062 143.755 69.4997 143.71 69.8155 143.589C70.1313 143.467 70.3727 143.291 70.5397 143.058C70.7022 142.826 70.7937 142.554 70.8144 142.243C70.8283 142.032 70.7977 141.837 70.7223 141.658C70.6421 141.483 70.5131 141.316 70.3353 141.157C70.153 140.998 69.9195 140.847 69.6351 140.704C69.346 140.561 68.9995 140.418 68.5955 140.276C68.0391 140.079 67.5616 139.868 67.1631 139.644C66.7645 139.42 66.4408 139.176 66.192 138.911C65.9383 138.651 65.7577 138.361 65.6503 138.041C65.5381 137.726 65.4948 137.374 65.5207 136.985C65.5477 136.578 65.6545 136.216 65.841 135.897C66.0275 135.579 66.2817 135.314 66.6036 135.101C66.9255 134.888 67.3056 134.732 67.744 134.632C68.1775 134.537 68.6572 134.507 69.1831 134.542C69.645 134.572 70.0958 134.667 70.5354 134.824C70.9705 134.982 71.3625 135.201 71.7113 135.481C72.0556 135.761 72.325 136.096 72.5196 136.486C72.7094 136.88 72.7877 137.326 72.7546 137.824L71.4375 137.737C71.4603 137.394 71.4136 137.094 71.2973 136.839C71.1808 136.587 71.0135 136.374 70.7955 136.199C70.5729 136.023 70.3179 135.887 70.0303 135.79C69.738 135.697 69.4317 135.64 69.1116 135.619C68.6497 135.588 68.2544 135.626 67.9258 135.733C67.5972 135.84 67.3426 136.006 67.1622 136.233C66.9772 136.46 66.8739 136.735 66.8524 137.06ZM55.9973 135.833L54.7125 135.531C54.9243 134.931 55.2302 134.422 55.6302 134.003C56.0302 133.583 56.5248 133.293 57.114 133.13C57.7021 132.972 58.3865 132.985 59.1672 133.168C59.7383 133.303 60.2328 133.532 60.6509 133.857C61.0644 134.18 61.3923 134.577 61.6345 135.049C61.8756 135.524 62.0226 136.06 62.0752 136.657C62.1224 137.256 62.0657 137.898 61.905 138.58L61.6766 139.55C61.516 140.233 61.2813 140.83 60.9726 141.341C60.6584 141.856 60.2851 142.272 59.8526 142.589C59.4156 142.905 58.931 143.114 58.3988 143.214C57.8665 143.315 57.2993 143.294 56.697 143.153C55.9609 142.979 55.3711 142.695 54.9276 142.298C54.4841 141.902 54.1796 141.425 54.0141 140.868C53.843 140.315 53.7996 139.709 53.8839 139.051L55.1688 139.353C55.1241 139.823 55.1482 140.241 55.2411 140.606C55.3329 140.976 55.514 141.287 55.7843 141.539C56.0545 141.791 56.4417 141.977 56.9459 142.095C57.3786 142.197 57.7795 142.204 58.1485 142.117C58.513 142.029 58.8425 141.859 59.137 141.608C59.427 141.356 59.6777 141.032 59.889 140.634C60.1002 140.236 60.2668 139.779 60.3886 139.261L60.6202 138.278C60.7325 137.8 60.789 137.34 60.7896 136.898C60.7857 136.454 60.7184 136.05 60.5877 135.685C60.4571 135.32 60.2549 135.009 59.9812 134.751C59.7064 134.498 59.3527 134.321 58.9199 134.219C58.3712 134.09 57.9135 134.074 57.5469 134.171C57.1803 134.269 56.8761 134.461 56.6344 134.747C56.3882 135.033 56.1758 135.395 55.9973 135.833ZM48.4942 140.82L45.4341 139.548C44.74 139.26 44.1977 138.911 43.8073 138.5C43.4128 138.088 43.1768 137.623 43.0993 137.105C43.0159 136.588 43.0991 136.03 43.3488 135.429C43.5246 135.006 43.7722 134.654 44.0917 134.375C44.4052 134.098 44.7738 133.904 45.1974 133.792C45.6151 133.683 46.0707 133.661 46.5644 133.727L46.9626 133.736L49.8386 134.931L49.4372 135.933L47.266 135.031C46.8258 134.848 46.428 134.773 46.0727 134.804C45.7156 134.839 45.4084 134.957 45.1513 135.158C44.8941 135.359 44.6996 135.618 44.5677 135.935C44.42 136.291 44.3606 136.631 44.3895 136.956C44.4184 137.28 44.5533 137.577 44.794 137.846C45.0287 138.117 45.381 138.35 45.8508 138.545L47.6856 139.308L51.109 131.067L52.3343 131.576L48.4942 140.82ZM46.9315 129.331L47.4383 134.455L46.1595 133.931L45.592 128.864L45.6236 128.788L46.9315 129.331ZM33.7451 127.978L34.0835 127.444C34.4856 126.809 34.9254 126.29 35.403 125.887C35.8805 125.484 36.3799 125.201 36.9012 125.037C37.4225 124.874 37.9511 124.832 38.487 124.911C39.019 124.987 39.5425 125.188 40.0575 125.515C40.557 125.831 40.957 126.214 41.2575 126.665C41.5541 127.113 41.7438 127.61 41.8265 128.157C41.9054 128.7 41.8687 129.276 41.7164 129.885C41.5641 130.494 41.2869 131.116 40.8848 131.751L40.5464 132.285C40.1442 132.92 39.7037 133.436 39.2248 133.833C38.7395 134.231 38.2343 134.51 37.7091 134.671C37.1815 134.836 36.6517 134.88 36.1196 134.804C35.5837 134.725 35.0661 134.527 34.5666 134.211C34.0516 133.885 33.6458 133.498 33.3492 133.049C33.0487 132.599 32.8621 132.101 32.7896 131.556C32.7107 131.012 32.7513 130.438 32.9113 129.834C33.065 129.232 33.3429 128.613 33.7451 127.978ZM35.1928 128.146L34.8471 128.692C34.5283 129.196 34.2986 129.674 34.1579 130.127C34.0134 130.578 33.9565 130.998 33.9872 131.386C34.0179 131.775 34.1336 132.127 34.3344 132.444C34.5312 132.759 34.8097 133.03 35.1698 133.258C35.5183 133.479 35.8768 133.611 36.2452 133.655C36.6099 133.696 36.9762 133.648 37.3443 133.512C37.7085 133.374 38.0674 133.146 38.4211 132.827C38.7747 132.509 39.1109 132.098 39.4297 131.594L39.7754 131.048C40.0967 130.541 40.3269 130.058 40.4661 129.598C40.6029 129.142 40.6553 128.717 40.6231 128.322C40.5846 127.929 40.4689 127.576 40.2759 127.264C40.0791 126.95 39.8064 126.682 39.4579 126.461C39.094 126.231 38.7277 126.094 38.3592 126.05C37.9908 126.007 37.6263 126.055 37.266 126.196C36.8993 126.338 36.543 126.571 36.1972 126.894C35.8488 127.222 35.514 127.639 35.1928 128.146ZM28.5268 118.336L29.2434 117.529L32.986 120.852L32.2694 121.659L28.5268 118.336ZM26.1448 128.164L32.7906 120.679L33.7828 121.56L27.137 129.045L26.1448 128.164ZM22.3331 111.483L23.1598 110.789L26.3777 114.622L25.5511 115.316L22.3331 111.483ZM18.5433 120.858L26.2098 114.422L27.0629 115.438L19.3964 121.874L18.5433 120.858ZM17.2659 101.554L18.1858 103.431L17.2106 103.894L16.2967 102.03C15.982 101.388 15.586 100.918 15.1087 100.621C14.6273 100.326 14.0913 100.191 13.5008 100.215C12.9042 100.237 12.2787 100.408 11.6243 100.729L11.0749 100.998C10.5605 101.251 10.1339 101.536 9.7953 101.855C9.4525 102.177 9.2017 102.524 9.043 102.898C8.8802 103.274 8.8115 103.67 8.8369 104.086C8.8603 104.498 8.9809 104.927 9.1988 105.371L10.1913 107.396L9.216 107.874L8.2235 105.849C7.935 105.261 7.7705 104.675 7.73 104.093C7.6853 103.512 7.7625 102.956 7.9614 102.425C8.1542 101.892 8.4655 101.402 8.8953 100.957C9.3211 100.513 9.8591 100.132 10.5093 99.8133L11.0463 99.5503C11.6966 99.2313 12.3294 99.0383 12.9449 98.9723C13.5562 98.9073 14.1328 98.9633 14.6745 99.1423C15.2143 99.3163 15.706 99.6063 16.1497 100.011C16.5872 100.415 16.9593 100.929 17.2659 101.554ZM8.8862 107.201L17.8741 102.795L18.4582 103.987L9.4702 108.393L8.8862 107.201ZM6.629 88.5033L7.236 88.3263C7.9574 88.1153 8.6304 88.0163 9.255 88.0293C9.8796 88.0423 10.4416 88.1593 10.941 88.3803C11.4404 88.6023 11.8652 88.9193 12.2154 89.3333C12.5642 89.7423 12.8243 90.2393 12.9955 90.8243C13.1615 91.3913 13.2085 91.9433 13.1364 92.4803C13.063 93.0133 12.877 93.5113 12.5784 93.9763C12.2785 94.4363 11.8703 94.8443 11.3538 95.2013C10.8373 95.5573 10.2184 95.8413 9.497 96.0523L8.89 96.2303C8.1686 96.4413 7.4971 96.5373 6.8756 96.5183C6.2484 96.4973 5.6845 96.3733 5.1838 96.1473C4.6787 95.9223 4.2517 95.6053 3.9029 95.1963C3.5527 94.7833 3.2946 94.2933 3.1285 93.7253C2.9573 93.1403 2.9084 92.5823 2.9818 92.0493C3.054 91.5123 3.2428 91.0153 3.5484 90.5583C3.8483 90.0983 4.2577 89.6943 4.7768 89.3463C5.2902 88.9953 5.9076 88.7153 6.629 88.5033ZM7.6048 89.5863L6.9845 89.7683C6.4127 89.9353 5.9242 90.1423 5.5191 90.3903C5.1127 90.6333 4.7928 90.9103 4.5593 91.2223C4.3258 91.5343 4.1797 91.8753 4.121 92.2463C4.0611 92.6123 4.0909 93.0003 4.2106 93.4093C4.3265 93.8053 4.5084 94.1413 4.7563 94.4173C5.0029 94.6883 5.3093 94.8953 5.6753 95.0363C6.0401 95.1733 6.4604 95.2383 6.9363 95.2333C7.4123 95.2273 7.9361 95.1413 8.508 94.9733L9.1282 94.7923C9.7044 94.6233 10.1967 94.4123 10.6049 94.1593C11.0087 93.9073 11.3289 93.6233 11.5655 93.3053C11.7964 92.9843 11.9425 92.6433 12.0038 92.2813C12.0638 91.9153 12.0358 91.5343 11.92 91.1383C11.799 90.7253 11.6145 90.3803 11.3666 90.1043C11.1187 89.8283 10.813 89.6243 10.4495 89.4913C10.0803 89.3563 9.6591 89.2953 9.1857 89.3103C8.708 89.3253 8.181 89.4173 7.6048 89.5863ZM7.7276 81.5293L0.6007 80.1353L0.52 79.1763L3.2727 79.5033L10.7205 81.0223L10.8006 81.9743L7.7276 81.5293ZM0.9396 84.1633L7.6303 82.0133L10.7418 81.2763L10.8214 82.2213L1.0503 85.4783L0.9396 84.1633ZM7.1209 76.0403L0.174801 75.0723L0.0636005 73.7503L10.241 75.3223L10.3205 76.2683L7.1209 76.0403ZM0.5079 79.0323L7.3062 76.5213L10.2617 75.5693L10.3418 76.5213L3.2462 79.1883L0.5875 79.9773L0.5079 79.0323ZM0.882801 61.4315L10.8265 62.5792L10.6736 63.9041L2.4263 68.025L10.0959 68.9101L9.9437 70.2282L0 69.0806L0.1521 67.7625L8.4223 63.6235L0.732201 62.736L0.882801 61.4315ZM12.0639 53.5285C11.8605 53.4575 11.7115 53.335 11.6169 53.1612C11.5195 52.9815 11.5131 52.7705 11.5978 52.5282C11.6824 52.2859 11.8181 52.127 12.0047 52.0514C12.1885 51.97 12.3821 51.9648 12.5854 52.0358C12.7845 52.1054 12.9305 52.2292 13.0236 52.4074C13.1182 52.5813 13.1232 52.7893 13.0386 53.0316C12.9539 53.2739 12.8197 53.4358 12.6359 53.5172C12.4536 53.5943 12.2629 53.5981 12.0639 53.5285ZM17.4364 37.8731C17.236 37.7527 17.0404 37.6779 16.8494 37.6487C16.6569 37.6131 16.4517 37.6342 16.2339 37.7118C16.0185 37.7855 15.7735 37.9217 15.499 38.1204C15.2269 38.3151 14.9103 38.5793 14.5493 38.9131C14.1686 39.2618 13.7989 39.5609 13.4403 39.8106C13.0777 40.0579 12.7231 40.2431 12.3764 40.3663C12.0296 40.4894 11.6877 40.5378 11.3505 40.5116C11.0133 40.4854 10.6778 40.372 10.3439 40.1713C10.01 39.9706 9.7429 39.7165 9.5428 39.409C9.3426 39.1015 9.2151 38.7575 9.1604 38.377C9.1041 37.9903 9.1245 37.5827 9.2215 37.1544C9.3185 36.7261 9.4993 36.292 9.7637 35.852C10.151 35.2078 10.6029 34.7362 11.1196 34.4371C11.6346 34.1318 12.1614 33.9805 12.6998 33.9833C13.2343 33.9837 13.7255 34.1185 14.1733 34.3877L13.4933 35.519C13.1711 35.3254 12.845 35.2229 12.5149 35.2117C12.1809 35.198 11.8593 35.2882 11.5502 35.4821C11.2373 35.6736 10.9521 35.9835 10.6947 36.4116C10.4515 36.8162 10.3117 37.1867 10.2753 37.5231C10.2388 37.8595 10.2858 38.1551 10.416 38.4099C10.5487 38.6607 10.7485 38.8664 11.0157 39.027C11.1964 39.1356 11.3838 39.1974 11.5779 39.2125C11.7705 39.2213 11.978 39.183 12.2005 39.0975C12.4254 39.0081 12.6664 38.8695 12.9236 38.6819C13.1831 38.4903 13.4683 38.2472 13.779 37.9527C14.2093 37.5483 14.6151 37.2201 14.9965 36.968C15.3779 36.716 15.7432 36.5399 16.0923 36.4395C16.4398 36.3329 16.7801 36.3049 17.1134 36.3555C17.445 36.3998 17.7778 36.5223 18.1117 36.723C18.4613 36.9331 18.735 37.1939 18.9329 37.5053C19.1307 37.8167 19.2507 38.1642 19.2928 38.5479C19.3349 38.9315 19.3 39.341 19.1881 39.7763C19.0745 40.2054 18.882 40.6458 18.6105 41.0975C18.372 41.4943 18.0821 41.8521 17.7407 42.1709C17.4016 42.4859 17.0277 42.7343 16.6188 42.9164C16.2123 43.0945 15.7913 43.181 15.3559 43.1759C14.9188 43.1646 14.4863 43.0302 14.0581 42.7728L14.7381 41.6415C15.0327 41.8186 15.3203 41.9139 15.6009 41.9275C15.8776 41.9387 16.1437 41.8875 16.3992 41.7737C16.6572 41.656 16.8951 41.4915 17.113 41.2803C17.3293 41.0627 17.5201 40.8165 17.6854 40.5415C17.9239 40.1447 18.0707 39.7758 18.126 39.4347C18.1813 39.0936 18.1494 38.791 18.0301 38.5268C17.9132 38.2587 17.7153 38.0408 17.4364 37.8731ZM23.4916 28.7826L24.3484 27.7784C24.7849 28.2412 25.098 28.7464 25.2876 29.2938C25.4773 29.8412 25.5096 30.414 25.3847 31.0123C25.2563 31.6077 24.9318 32.2104 24.4112 32.8206C24.0305 33.2669 23.6002 33.6017 23.1205 33.825C22.6438 34.0448 22.1404 34.1545 21.6105 34.1543C21.0771 34.151 20.5332 34.0364 19.9789 33.8105C19.4241 33.5781 18.88 33.2343 18.3465 32.7792L17.5882 32.1321C17.0547 31.677 16.6313 31.1952 16.318 30.6869C16.0041 30.1721 15.8051 29.6498 15.7209 29.1201C15.6396 28.5869 15.6759 28.0606 15.8299 27.5412C15.9838 27.0219 16.2616 26.5269 16.6632 26.0562C17.154 25.4809 17.6771 25.0867 18.2324 24.8737C18.7877 24.6607 19.3508 24.6079 19.9217 24.7155C20.4922 24.8166 21.0507 25.0552 21.5974 25.4313L20.7407 26.4354C20.3434 26.1808 19.961 26.0112 19.5934 25.9265C19.2224 25.8388 18.863 25.8576 18.5153 25.9826C18.1676 26.1077 17.8256 26.3672 17.4895 26.7612C17.2009 27.0994 17.0111 27.4525 16.92 27.8206C16.8318 28.1852 16.8319 28.5558 16.9202 28.9324C17.0116 29.3056 17.1856 29.677 17.4425 30.0468C17.6994 30.4166 18.03 30.774 18.4345 31.1191L19.2033 31.775C19.5763 32.0933 19.9594 32.3539 20.3526 32.5569C20.7488 32.7563 21.1391 32.8814 21.5235 32.9323C21.9079 32.9831 22.2771 32.9457 22.6313 32.8201C22.982 32.6916 23.3016 32.4582 23.5901 32.12C23.9561 31.6912 24.1796 31.2915 24.2608 30.9209C24.342 30.5504 24.3103 30.192 24.1659 29.8459C24.0244 29.4962 23.7996 29.1418 23.4916 28.7826ZM22.5078 19.8211L25.0465 17.6915C25.6224 17.2084 26.1823 16.8882 26.7264 16.7309C27.274 16.5707 27.7957 16.5758 28.2915 16.7461C28.7879 16.91 29.2452 17.2412 29.6635 17.7398C29.9581 18.091 30.1556 18.4727 30.2561 18.8849C30.3572 19.2906 30.3597 19.7073 30.2637 20.1348C30.1682 20.5558 29.9774 20.9702 29.6912 21.3778L29.4995 21.727L27.1135 23.7285L26.4093 22.9104L28.2107 21.3993C28.5759 21.093 28.8266 20.775 28.9628 20.4453C29.0961 20.1122 29.1329 19.7852 29.0732 19.4644C29.0135 19.1436 28.8731 18.8515 28.6522 18.5882C28.4048 18.2932 28.1304 18.0837 27.8289 17.9597C27.5275 17.8357 27.202 17.8185 26.8526 17.9083C26.5037 17.9916 26.1344 18.1967 25.7446 18.5237L24.2224 19.8005L29.9573 26.6372L28.9408 27.4899L22.5078 19.8211ZM33.4231 23.73L28.6425 21.8178L29.6967 20.9244L34.4551 22.7566L34.5081 22.8198L33.4231 23.73ZM40.6857 12.6267L41.0057 13.1722C41.3861 13.8205 41.646 14.4491 41.7854 15.0581C41.9249 15.6671 41.948 16.2408 41.8546 16.7791C41.7613 17.3174 41.5568 17.8067 41.2412 18.2469C40.9296 18.6848 40.5109 19.058 39.9851 19.3665C39.4752 19.6657 38.9511 19.8457 38.4128 19.9064C37.8785 19.9649 37.3497 19.9058 36.8264 19.7293C36.307 19.5505 35.8115 19.254 35.34 18.8398C34.8685 18.4257 34.4426 17.8945 34.0622 17.2462L33.7421 16.7006C33.3618 16.0523 33.105 15.4245 32.9718 14.8172C32.8403 14.2035 32.8231 13.6264 32.9204 13.0858C33.0154 12.5412 33.2187 12.0499 33.5303 11.612C33.8459 11.1718 34.2587 10.802 34.7686 10.5028C35.2944 10.1944 35.8244 10.0109 36.3587 9.9525C36.897 9.8917 37.425 9.9539 37.9428 10.139C38.4622 10.3178 38.9537 10.6166 39.4173 11.0354C39.8825 11.448 40.3053 11.9784 40.6857 12.6267ZM39.8732 13.8367L39.5461 13.2793C39.2446 12.7654 38.9245 12.3421 38.5859 12.0094C38.2512 11.6744 37.9041 11.4317 37.5448 11.2812C37.1855 11.1306 36.819 11.072 36.4453 11.1053C36.0755 11.1363 35.7068 11.2596 35.3392 11.4753C34.9834 11.684 34.7018 11.9422 34.4944 12.2499C34.291 12.5553 34.1654 12.9026 34.1175 13.2921C34.0736 13.6791 34.1123 14.1028 34.2336 14.5631C34.3548 15.0233 34.5662 15.5104 34.8677 16.0243L35.1947 16.5817C35.4986 17.0995 35.823 17.5256 36.1679 17.8599C36.5105 18.1903 36.8646 18.4315 37.2302 18.5837C37.5975 18.7296 37.964 18.7882 38.3298 18.7595C38.6995 18.7286 39.0623 18.6087 39.4181 18.4C39.7896 18.182 40.0791 17.9191 40.2865 17.6115C40.4939 17.3038 40.6176 16.9576 40.6575 16.5728C40.6991 16.1817 40.6553 15.7584 40.5261 15.3028C40.3947 14.8432 40.177 14.3545 39.8732 13.8367ZM51.6476 12.3975L52.0377 13.4039L47.371 15.2124L46.9809 14.206L51.6476 12.3975ZM43.9975 5.7846L47.6145 15.118L46.3774 15.5975L42.7603 6.264L43.9975 5.7846ZM60.5796 10.0075L60.8209 11.0596L55.9426 12.1783L55.7014 11.1263L60.5796 10.0075ZM53.9598 2.3634L56.1973 12.1199L54.904 12.4165L52.6665 2.66L53.9598 2.3634ZM71.7127 10.0639L69.6232 10.0205L69.6594 8.9416L71.7351 8.9848C72.45 8.9996 73.0488 8.8631 73.5313 8.5751C74.0143 8.2826 74.3803 7.8685 74.6303 7.3327C74.8843 6.7925 75.0193 6.1581 75.0343 5.4295L75.0463 4.8178C75.0583 4.245 75.0003 3.735 74.8723 3.2876C74.7443 2.8357 74.5503 2.4535 74.2913 2.1409C74.0313 1.8238 73.7113 1.5811 73.3293 1.4127C72.9527 1.2444 72.5168 1.1551 72.0219 1.1448L69.7674 1.098L69.79 0.012001L72.0445 0.0587997C72.6997 0.0724997 73.2953 0.1949 73.8313 0.4261C74.3673 0.6527 74.8263 0.9762 75.2073 1.3967C75.5933 1.8127 75.8853 2.3139 76.0833 2.9002C76.2823 3.482 76.3743 4.1348 76.3593 4.8588L76.3473 5.4568C76.3313 6.1808 76.2133 6.8316 75.9903 7.4091C75.7673 7.9821 75.4523 8.4684 75.0453 8.8679C74.6423 9.2675 74.1593 9.5715 73.5963 9.7798C73.0369 9.9837 72.4092 10.0784 71.7127 10.0639ZM70.5392 0.0276012L70.3312 10.0352L69.0046 10.0076L69.2126 0L70.5392 0.0276012ZM88.1883 6.6091L88.0663 7.2298C87.9223 7.9675 87.7013 8.6107 87.4023 9.1594C87.1033 9.7081 86.7413 10.1533 86.3143 10.4949C85.8883 10.8366 85.4113 11.0679 84.8833 11.1888C84.3593 11.3106 83.7983 11.3131 83.2003 11.1962C82.6203 11.0827 82.1083 10.8706 81.6643 10.5597C81.2253 10.2498 80.8683 9.8554 80.5933 9.3766C80.3223 8.8987 80.1473 8.3484 80.0683 7.7259C79.9893 7.1033 80.0213 6.4232 80.1653 5.6855L80.2873 5.0648C80.4313 4.3271 80.6543 3.6866 80.9563 3.1432C81.2643 2.5963 81.6333 2.1524 82.0643 1.8117C82.4963 1.4664 82.9743 1.2329 83.4973 1.1111C84.0253 0.990101 84.5793 0.9863 85.1593 1.0998C85.7583 1.2167 86.2763 1.4302 86.7163 1.7401C87.1593 2.051 87.5143 2.4472 87.7793 2.9287C88.0503 3.4066 88.2203 3.956 88.2913 4.5768C88.3663 5.194 88.3323 5.8714 88.1883 6.6091ZM86.7773 6.9779L86.9013 6.3437C87.0163 5.759 87.0563 5.2298 87.0233 4.7563C86.9943 4.2836 86.8943 3.8719 86.7253 3.5212C86.5553 3.1705 86.3193 2.8839 86.0173 2.6614C85.7193 2.4398 85.3623 2.2881 84.9433 2.2063C84.5383 2.1272 84.1563 2.1342 83.7973 2.2275C83.4433 2.3216 83.1183 2.4988 82.8253 2.7589C82.5363 3.0199 82.2843 3.3631 82.0703 3.7882C81.8563 4.2134 81.6923 4.7184 81.5783 5.3032L81.4543 5.9374C81.3393 6.5267 81.3003 7.0607 81.3373 7.5397C81.3753 8.0141 81.4813 8.4294 81.6543 8.7854C81.8323 9.1379 82.0683 9.4245 82.3613 9.6453C82.6593 9.8669 83.0103 10.0172 83.4153 10.0964C83.8383 10.179 84.2293 10.1737 84.5883 10.0805C84.9473 9.9872 85.2693 9.8096 85.5543 9.5477C85.8443 9.2822 86.0913 8.9359 86.2963 8.509C86.5023 8.0775 86.6623 7.5672 86.7773 6.9779ZM93.8893 10.7816L98.3833 5.0776L99.2733 5.4437L97.7253 7.7433L92.9733 13.6759L92.0903 13.3124L93.8893 10.7816ZM94.6453 3.5399L93.5023 10.474L92.7383 13.5791L91.8613 13.2182L93.4243 3.0378L94.6453 3.5399ZM99.0493 12.748L103.082 7.0101L104.309 7.5148L98.2633 15.8516L97.3863 15.4907L99.0493 12.748ZM99.4073 5.4986L98.5373 12.6932L98.0343 15.7575L97.1513 15.394L98.0183 7.8636L98.5293 5.1377L99.4073 5.4986ZM114.895 13.8826L109.323 22.1978L108.215 21.4553L108.327 12.2365L104.029 18.65L102.926 17.9113L108.499 9.5961L109.601 10.3347L109.495 19.5822L113.804 13.1516L114.895 13.8826ZM116.793 27.4485C116.95 27.3003 117.127 27.224 117.325 27.2196C117.529 27.2153 117.72 27.3063 117.896 27.4926C118.073 27.6789 118.152 27.8723 118.133 28.0728C118.122 28.2735 118.037 28.4479 117.881 28.5961C117.728 28.7411 117.551 28.8142 117.35 28.8153C117.152 28.8197 116.965 28.7288 116.788 28.5425C116.612 28.3562 116.529 28.1628 116.541 27.9621C116.556 27.7647 116.64 27.5935 116.793 27.4485ZM128.225 39.4048C128.424 39.2824 128.581 39.1432 128.694 38.9871C128.815 38.8325 128.89 38.6407 128.922 38.4116C128.955 38.1864 128.947 37.9063 128.897 37.5712C128.85 37.24 128.761 36.8373 128.631 36.3631C128.496 35.8646 128.401 35.3987 128.344 34.9654C128.292 34.5297 128.291 34.1296 128.341 33.7652C128.391 33.4007 128.506 33.0748 128.684 32.7875C128.863 32.5002 129.118 32.2546 129.45 32.0506C129.782 31.8465 130.13 31.7264 130.495 31.6903C130.86 31.6541 131.224 31.6993 131.587 31.8258C131.957 31.9539 132.309 32.1596 132.645 32.4429C132.98 32.7262 133.282 33.0865 133.551 33.5238C133.945 34.1641 134.155 34.7824 134.183 35.3787C134.217 35.9765 134.109 36.5138 133.859 36.9905C133.612 37.4648 133.266 37.8388 132.821 38.1124L132.13 36.988C132.45 36.7911 132.691 36.5488 132.853 36.2609C133.019 35.9706 133.087 35.6437 133.057 35.28C133.031 34.914 132.887 34.5182 132.626 34.0926C132.379 33.6905 132.114 33.3958 131.832 33.2086C131.55 33.0215 131.266 32.9271 130.98 32.9254C130.696 32.9277 130.422 33.0105 130.156 33.1737C129.977 33.2841 129.835 33.422 129.733 33.5874C129.636 33.7543 129.575 33.9562 129.548 34.1931C129.524 34.4339 129.536 34.7116 129.584 35.0263C129.635 35.3449 129.719 35.7099 129.838 36.1213C129.999 36.6895 130.103 37.2009 130.152 37.6555C130.2 38.1101 130.188 38.5154 130.116 38.8715C130.051 39.2291 129.919 39.5441 129.721 39.8167C129.529 40.0907 129.267 40.3298 128.935 40.5338C128.588 40.7474 128.23 40.8704 127.863 40.9027C127.495 40.9349 127.131 40.8815 126.771 40.7423C126.412 40.6031 126.064 40.3836 125.729 40.0838C125.4 39.7855 125.098 39.4119 124.822 38.9629C124.58 38.5685 124.395 38.1465 124.27 37.6966C124.146 37.2507 124.098 36.8043 124.124 36.3576C124.153 35.9147 124.27 35.5011 124.475 35.1169C124.686 34.7342 125.005 34.412 125.43 34.1503L126.122 35.2748C125.829 35.4548 125.612 35.6663 125.471 35.9091C125.333 36.1496 125.256 36.4094 125.24 36.6886C125.225 36.9718 125.262 37.2587 125.349 37.5494C125.443 37.8415 125.574 38.1243 125.742 38.3976C125.984 38.7919 126.244 39.0922 126.521 39.2983C126.799 39.5044 127.082 39.6153 127.371 39.631C127.663 39.6507 127.948 39.5753 128.225 39.4048ZM133.538 48.9607L134.04 50.1814C133.429 50.3584 132.837 50.4063 132.263 50.3251C131.69 50.2438 131.165 50.011 130.69 49.6267C130.219 49.2406 129.831 48.6767 129.526 47.9349C129.303 47.3923 129.201 46.8567 129.222 46.3279C129.244 45.8034 129.376 45.3055 129.618 44.8342C129.865 44.3611 130.215 43.9296 130.669 43.5396C131.129 43.1522 131.684 42.8251 132.332 42.5583L133.254 42.1791C133.903 41.9124 134.525 41.7557 135.12 41.709C135.721 41.6649 136.277 41.7263 136.787 41.8933C137.298 42.0645 137.75 42.3371 138.141 42.7112C138.533 43.0853 138.847 43.5585 139.082 44.1307C139.37 44.8301 139.482 45.4754 139.417 46.0667C139.353 46.658 139.143 47.1831 138.787 47.6419C138.436 48.1032 137.969 48.4912 137.385 48.8058L136.883 47.5851C137.291 47.3479 137.616 47.0852 137.859 46.7968C138.107 46.5067 138.254 46.1785 138.302 45.812C138.349 45.4456 138.274 45.0229 138.077 44.5439C137.908 44.1328 137.681 43.8026 137.395 43.5534C137.111 43.3085 136.781 43.1394 136.406 43.046C136.032 42.9569 135.622 42.9421 135.176 43.0018C134.73 43.0614 134.261 43.1924 133.769 43.3946L132.834 43.779C132.381 43.9656 131.974 44.1874 131.614 44.4446C131.256 44.7059 130.966 44.996 130.745 45.3148C130.525 45.6335 130.389 45.9791 130.339 46.3516C130.293 46.7222 130.355 47.1132 130.524 47.5243C130.739 48.0457 130.992 48.4271 131.285 48.6685C131.577 48.9099 131.911 49.0454 132.284 49.075C132.66 49.1088 133.078 49.0707 133.538 48.9607ZM141.96 52.1698L142.7 55.3997C142.868 56.1324 142.898 56.7767 142.791 57.3327C142.684 57.8932 142.442 58.3554 142.065 58.7193C141.693 59.0867 141.19 59.343 140.555 59.4884C140.109 59.5908 139.679 59.5929 139.266 59.4947C138.859 59.4 138.487 59.2125 138.15 58.9324C137.818 58.6557 137.536 58.2971 137.304 57.8567L137.08 57.5271L136.384 54.4915L137.433 54.237L137.959 56.5288C138.065 56.9934 138.234 57.3614 138.466 57.6328C138.701 57.9031 138.976 58.0848 139.289 58.1777C139.601 58.2705 139.925 58.2786 140.26 58.2018C140.636 58.1158 140.947 57.9668 141.195 57.7549C141.442 57.543 141.606 57.261 141.685 56.909C141.77 56.5605 141.755 56.1383 141.642 55.6424L141.198 53.7057L132.5 55.6991L132.203 54.4058L141.96 52.1698ZM133.51 60.1085L137.389 56.7227L137.705 58.0681L133.907 61.4705L133.827 61.4889L133.51 60.1085ZM140.039 71.6355L139.408 71.6685C138.657 71.7077 137.979 71.649 137.374 71.4925C136.77 71.3359 136.25 71.0923 135.815 70.7616C135.38 70.4309 135.04 70.0242 134.794 69.5413C134.549 69.0631 134.41 68.5196 134.379 67.9108C134.348 67.3204 134.429 66.7723 134.623 66.2665C134.817 65.7653 135.113 65.323 135.511 64.9397C135.909 64.5609 136.4 64.2576 136.985 64.0297C137.569 63.8018 138.237 63.6683 138.988 63.629L139.619 63.5961C140.37 63.5568 141.045 63.6179 141.646 63.7793C142.251 63.9451 142.771 64.1956 143.207 64.5308C143.646 64.8658 143.989 65.2725 144.234 65.7507C144.48 66.2336 144.618 66.7702 144.649 67.3606C144.68 67.9694 144.599 68.5244 144.405 69.0256C144.211 69.5314 143.913 69.9715 143.51 70.3459C143.112 70.7246 142.621 71.0234 142.036 71.2421C141.455 71.4652 140.79 71.5963 140.039 71.6355ZM139.339 70.3572L139.984 70.3235C140.579 70.2924 141.103 70.2032 141.554 70.0557C142.005 69.9128 142.381 69.7165 142.68 69.4668C142.979 69.2171 143.199 68.9187 143.342 68.5717C143.485 68.2292 143.545 67.8451 143.523 67.4194C143.501 67.0075 143.402 66.6387 143.224 66.3129C143.047 65.9917 142.796 65.7203 142.472 65.4985C142.149 65.2814 141.755 65.1207 141.291 65.0164C140.826 64.9122 140.296 64.8756 139.701 64.9066L139.056 64.9404C138.457 64.9717 137.929 65.0635 137.473 65.2158C137.022 65.3678 136.645 65.5711 136.342 65.8256C136.043 66.0845 135.822 66.3828 135.679 66.7207C135.537 67.0632 135.476 67.4404 135.498 67.8524C135.52 68.2826 135.62 68.6606 135.798 68.9863C135.975 69.3121 136.226 69.5813 136.549 69.7939C136.877 70.0108 137.273 70.1668 137.737 70.2619C138.205 70.3568 138.739 70.3885 139.339 70.3572ZM135.204 81.4783L134.131 81.3633L134.668 76.3873L135.741 76.5023L135.204 81.4783ZM144.592 77.7203L134.64 76.6463L134.782 75.3273L144.734 76.4013L144.592 77.7203ZM133.22 90.5073L132.175 90.2383L133.425 85.3913L134.47 85.6613L133.22 90.5073ZM143.053 88.1453L133.36 85.6443L133.691 84.3603L143.384 86.8603L143.053 88.1453ZM128.067 100.405L129.056 98.5643L130 99.0873L129.018 100.915C128.679 101.545 128.528 102.141 128.565 102.702C128.606 103.265 128.808 103.779 129.172 104.245C129.537 104.717 130.041 105.126 130.683 105.471L131.222 105.76C131.727 106.031 132.207 106.211 132.664 106.301C133.125 106.392 133.553 106.394 133.95 106.305C134.35 106.218 134.712 106.043 135.035 105.78C135.357 105.521 135.635 105.173 135.869 104.737L136.936 102.751L137.893 103.265L136.826 105.251C136.516 105.829 136.136 106.303 135.686 106.676C135.24 107.05 134.743 107.311 134.196 107.459C133.65 107.613 133.071 107.646 132.458 107.556C131.849 107.468 131.226 107.253 130.588 106.91L130.061 106.627C129.424 106.284 128.898 105.882 128.485 105.421C128.076 104.962 127.787 104.461 127.616 103.916C127.443 103.376 127.392 102.807 127.463 102.211C127.536 101.62 127.737 101.018 128.067 100.405ZM137.538 103.925L128.721 99.1873L129.349 98.0183L138.166 102.756L137.538 103.925ZM123.613 116.621L123.117 116.228C122.528 115.761 122.059 115.268 121.708 114.751C121.358 114.234 121.129 113.707 121.022 113.171C120.914 112.636 120.928 112.106 121.063 111.581C121.196 111.06 121.451 110.561 121.83 110.083C122.197 109.62 122.621 109.263 123.101 109.011C123.578 108.764 124.092 108.628 124.644 108.603C125.193 108.582 125.762 108.68 126.351 108.895C126.941 109.111 127.53 109.452 128.119 109.919L128.614 110.312C129.203 110.779 129.67 111.272 130.013 111.79C130.358 112.315 130.582 112.847 130.687 113.386C130.795 113.928 130.783 114.46 130.651 114.98C130.516 115.505 130.265 115.999 129.897 116.462C129.519 116.94 129.091 117.302 128.614 117.55C128.134 117.801 127.619 117.934 127.069 117.949C126.52 117.97 125.954 117.869 125.37 117.646C124.788 117.429 124.202 117.088 123.613 116.621ZM123.933 115.199L124.439 115.6C124.906 115.97 125.358 116.249 125.794 116.437C126.227 116.628 126.638 116.729 127.027 116.74C127.417 116.75 127.78 116.673 128.116 116.506C128.45 116.344 128.749 116.096 129.014 115.762C129.27 115.439 129.439 115.096 129.522 114.734C129.601 114.376 129.592 114.007 129.496 113.626C129.397 113.249 129.208 112.868 128.929 112.483C128.649 112.098 128.276 111.72 127.809 111.35L127.303 110.948C126.832 110.575 126.376 110.295 125.934 110.108C125.495 109.924 125.077 109.827 124.681 109.817C124.286 109.814 123.923 109.892 123.593 110.051C123.259 110.213 122.964 110.456 122.708 110.779C122.44 111.117 122.265 111.467 122.183 111.828C122.101 112.19 122.111 112.558 122.213 112.931C122.315 113.311 122.509 113.69 122.794 114.068C123.083 114.449 123.462 114.826 123.933 115.199ZM117.289 119.771L120.298 126.381L119.564 127.004L118.23 124.574L115.136 117.631L115.865 117.012L117.289 119.771ZM123.378 123.763L117.739 119.569L115.33 117.466L116.053 116.852L124.384 122.908L123.378 123.763ZM113.175 123.456L116.426 129.67L115.415 130.529L110.777 121.335L111.5 120.72L113.175 123.456ZM119.454 127.097L113.459 123.025L110.966 121.174L111.694 120.556L117.989 124.779L120.177 126.483L119.454 127.097ZM104.894 137.012L100.068 128.242L101.237 127.599L109.374 131.934L105.652 125.17L106.814 124.53L111.64 133.3L110.477 133.939L102.312 129.597L106.044 136.379L104.894 137.012ZM91.9593 132.496C92.0203 132.703 92.0073 132.895 91.9213 133.074C91.8323 133.258 91.6643 133.386 91.4183 133.458C91.1723 133.531 90.9643 133.514 90.7933 133.406C90.6203 133.304 90.5033 133.15 90.4423 132.943C90.3823 132.741 90.3983 132.55 90.4883 132.371C90.5743 132.193 90.7403 132.067 90.9863 131.994C91.2333 131.922 91.4423 131.936 91.6163 132.038C91.7853 132.141 91.8993 132.294 91.9593 132.496Z" fill="white"/>
        </svg>